<?xml version="1.0" encoding="utf-8"?>
<!-- Generator: Adobe Illustrator 20.0.0, SVG Export Plug-In . SVG Version: 6.00 Build 0)  -->
<svg version="1.1" id="图层_1" xmlns="http://www.w3.org/2000/svg" xmlns:xlink="http://www.w3.org/1999/xlink" x="0px" y="0px"
	 viewBox="0 0 190 400" style="enable-background:new 0 0 190 400;" xml:space="preserve">
<style type="text/css">
	.st0{fill:url(#SVGID_1_);}
	.st1{fill:none;stroke:#FFFFFF;stroke-width:2;stroke-miterlimit:8;}
</style>
<g>
	<g>
		<linearGradient id="SVGID_1_" gradientUnits="userSpaceOnUse" x1="217.3512" y1="386.5779" x2="2.9238" y2="15.1788">
			<stop  offset="0" style="stop-color:#C6904F"/>
			<stop  offset="0" style="stop-color:#000000"/>
			<stop  offset="0" style="stop-color:#FFECBC"/>
			<stop  offset="0.2513" style="stop-color:#FFDDB3"/>
			<stop  offset="0.6021" style="stop-color:#FF8D86"/>
			<stop  offset="0.7565" style="stop-color:#FF8984"/>
			<stop  offset="1" style="stop-color:#FF606D"/>
		</linearGradient>
		<path class="st0" d="M74.4,316v1c0,4.8-4,8.8-8.8,8.8H30.7v76.8h158.9V-0.8h-159v62.4H8.5c-4.8,0-8.8,4-8.8,8.8v1
			c0,3.7,2.4,6.9,5.8,8.2h67.1c4.8,0,8.8,4,8.8,8.8v1c0,4.8-4,8.8-8.8,8.8H30.8v18.7h27.8c4.8,0,8.8,4,8.8,8.8v1
			c0,4.8-4,8.8-8.8,8.8H30.8v15.1h-0.1v156.7h34.9C70.4,307.3,74.5,311.3,74.4,316z"/>
	</g>
</g>
<circle class="st1" cx="149.7" cy="34.4" r="12.2"/>
<circle class="st1" cx="120.9" cy="197.3" r="12.2"/>
<circle class="st1" cx="89.7" cy="361.1" r="9.6"/>
<circle class="st1" cx="87.1" cy="284.4" r="7"/>
<g>
	<line class="st1" x1="153.9" y1="137.7" x2="164.4" y2="125.5"/>
	<line class="st1" x1="164.5" y1="136.2" x2="153.5" y2="126.8"/>
</g>
<g>
	<line class="st1" x1="63.2" y1="230.1" x2="73.8" y2="217.9"/>
	<line class="st1" x1="73.8" y1="228.5" x2="62.9" y2="219.1"/>
</g>
<g>
	<line class="st1" x1="139.1" y1="322" x2="149.7" y2="309.8"/>
	<line class="st1" x1="149.7" y1="320.5" x2="138.8" y2="311"/>
</g>
<polygon class="st1" points="80.6,31.2 69.9,35 72,23.9 "/>
<polygon class="st1" points="92.4,169.4 91.1,181.4 79.2,174 "/>
</svg>
