<?xml version="1.0" encoding="utf-8"?>
<!-- Generator: Adobe Illustrator 20.0.0, SVG Export Plug-In . SVG Version: 6.00 Build 0)  -->
<svg version="1.1" id="图层_1" xmlns="http://www.w3.org/2000/svg" xmlns:xlink="http://www.w3.org/1999/xlink" x="0px" y="0px"
	 viewBox="0 0 190 400" style="enable-background:new 0 0 190 400;" xml:space="preserve">
<style type="text/css">
	.st0{fill:url(#SVGID_1_);}
	.st1{fill:none;stroke:#FFFFFF;stroke-width:2;stroke-miterlimit:8;}
</style>
<g>
	<g>
		
			<linearGradient id="SVGID_1_" gradientUnits="userSpaceOnUse" x1="-28.1402" y1="13.4201" x2="186.3087" y2="384.8564" gradientTransform="matrix(1 0 0 -1 0 399.9999)">
			<stop  offset="0" style="stop-color:#3DDEED"/>
			<stop  offset="1" style="stop-color:#838BC5"/>
		</linearGradient>
		<path class="st0" d="M123.7,307.3h34.9V150.6h-0.1v-15.1h-27.8c-4.8,0-8.8-4-8.8-8.8v-1c0-4.8,4-8.8,8.8-8.8h27.8V98.2h-41.8
			c-4.8,0-8.8-4-8.8-8.8v-1c0-4.8,4-8.8,8.8-8.8h67.1c3.4-1.3,5.8-4.5,5.8-8.2v-1c0-4.8-4-8.8-8.8-8.8h-22.1V-0.8h-159v403.4h158.9
			v-76.8h-34.9c-4.8,0-8.8-4-8.8-8.8v-1C114.8,311.3,118.9,307.3,123.7,307.3z"/>
	</g>
</g>
<circle class="st1" cx="39.6" cy="34.4" r="12.2"/>
<circle class="st1" cx="68.4" cy="197.3" r="12.2"/>
<circle class="st1" cx="99.6" cy="361.1" r="9.6"/>
<circle class="st1" cx="102.2" cy="284.4" r="7"/>
<g>
	<line class="st1" x1="24.9" y1="125.5" x2="35.4" y2="137.7"/>
	<line class="st1" x1="35.8" y1="126.8" x2="24.8" y2="136.2"/>
</g>
<g>
	<line class="st1" x1="115.5" y1="217.9" x2="126.1" y2="230.1"/>
	<line class="st1" x1="126.4" y1="219.1" x2="115.5" y2="228.5"/>
</g>
<g>
	<line class="st1" x1="39.6" y1="309.8" x2="50.2" y2="322"/>
	<line class="st1" x1="50.5" y1="311" x2="39.6" y2="320.5"/>
</g>
<polygon class="st1" points="117.3,23.9 119.4,35 108.7,31.2 "/>
<polygon class="st1" points="110.1,174 98.2,181.4 96.9,169.4 "/>
</svg>
