<?xml version="1.0" encoding="utf-8"?>
<!-- Generator: Adobe Illustrator 20.0.0, SVG Export Plug-In . SVG Version: 6.00 Build 0)  -->
<svg version="1.1" id="图层_1" xmlns="http://www.w3.org/2000/svg" xmlns:xlink="http://www.w3.org/1999/xlink" x="0px" y="0px"
	 viewBox="0 0 190 400" style="enable-background:new 0 0 190 400;" xml:space="preserve">
<style type="text/css">
	.st0{display:none;}
	.st1{display:inline;}
	.st2{fill:url(#SVGID_1_);}
	.st3{fill:url(#SVGID_2_);}
	.st4{fill:#EDE84C;}
	.st5{fill:none;stroke:#FFFFFF;stroke-width:2;stroke-miterlimit:8;}
</style>
<g class="st0">
	<g class="st1">
		
			<linearGradient id="SVGID_1_" gradientUnits="userSpaceOnUse" x1="-28.0512" y1="385.5779" x2="186.3762" y2="14.1789" gradientTransform="matrix(1 0 0 1 0 -9.155273e-05)">
			<stop  offset="0" style="stop-color:#3DDEED"/>
			<stop  offset="1" style="stop-color:#838BC5"/>
		</linearGradient>
		<path class="st2" d="M123.7,306.3h34.9V149.6h-0.1v-15.1h-27.8c-4.8,0-8.8-4-8.8-8.8v-1c0-4.8,4-8.8,8.8-8.8h27.8V97.2h-41.8
			c-4.8,0-8.8-4-8.8-8.8v-1c0-4.8,4-8.8,8.8-8.8h67.1c3.4-1.3,5.8-4.5,5.8-8.2v-1c0-4.8-4-8.8-8.8-8.8h-22.1V-1.8h-159v403.4h158.9
			v-76.8h-34.9c-4.8,0-8.8-4-8.8-8.8v-1C114.8,310.3,118.9,306.3,123.7,306.3z"/>
	</g>
</g>
<g>
	<g>
		<linearGradient id="SVGID_2_" gradientUnits="userSpaceOnUse" x1="224.3879" y1="331.1712" x2="-53.9416" y2="52.8417">
			<stop  offset="0" style="stop-color:#3DDEED"/>
			<stop  offset="0" style="stop-color:#0F3443"/>
			<stop  offset="1" style="stop-color:#34E89E;stop-opacity:0.9791"/>
		</linearGradient>
		<path class="st3" d="M184.2,205.8l-0.8-1.2c-2.5-3.6-7.5-4.6-11.1-2.2l-2.6,1.7c-0.6,1.1-1.5,2.2-2.6,2.9l-46.8,31.6
			c-3.6,2.5-8.6,1.5-11.1-2.2l-0.8-1.2c-2.5-3.6-1.5-8.6,2.2-11.1l42.4-28.7v-45h0V87.3L131.2,102c-3.6,2.5-8.6,1.5-11.1-2.2
			l-0.8-1.2c-2.5-3.6-1.5-8.6,2.2-11.1l31.6-21.3v-67H-0.3v403.4H153v-95.3h0v-7.5l-42.4,28.6c-3.6,2.5-8.6,1.5-11.1-2.2l-0.8-1.2
			c-2.5-3.6-1.5-8.6,2.2-11.1l52.2-35.2l12.9-8.7c3.6-2.5,4.6-7.5,2.2-11.1l-0.8-1.2c-2.5-3.6-7.5-4.6-11.1-2.2l-1.2,0.8l-1.9,1.3
			l-72.8,49.2c-3.6,2.5-8.6,1.5-11.1-2.2l-0.8-1.2c-2.5-3.6-1.5-8.6,2.2-11.1l89.6-60.5c0,0,0,0,0,0l22-14.9
			C185.7,214.5,186.7,209.5,184.2,205.8z"/>
	</g>
</g>
<path class="st4" d="M-58.1,227.6l-67.4,45.5c-3.6,2.5-8.6,1.5-11.1-2.2l-0.8-1.2c-2.5-3.6-1.5-8.6,2.2-11.1l67.4-45.5
	c3.6-2.5,8.6-1.5,11.1,2.2l0.8,1.2C-53.5,220.1-54.4,225.1-58.1,227.6z"/>
<circle class="st5" cx="67.5" cy="102.9" r="12.2"/>
<circle class="st5" cx="35.1" cy="200.9" r="12.2"/>
<circle class="st5" cx="137.6" cy="365.4" r="9.6"/>
<circle class="st5" cx="79.7" cy="325.8" r="7"/>
<g>
	<line class="st5" x1="40.6" y1="129.9" x2="51.1" y2="142.1"/>
	<line class="st5" x1="51.5" y1="131.2" x2="40.5" y2="140.6"/>
</g>
<g>
	<line class="st5" x1="29.7" y1="272.5" x2="40.3" y2="284.7"/>
	<line class="st5" x1="40.6" y1="273.7" x2="29.7" y2="283.1"/>
</g>
<g>
	<line class="st5" x1="29.7" y1="359.4" x2="40.3" y2="371.6"/>
	<line class="st5" x1="40.6" y1="360.6" x2="29.7" y2="370.1"/>
</g>
<polygon class="st5" points="43.5,44.9 45.6,56 34.9,52.2 "/>
<polygon class="st5" points="119.2,140.7 107.3,148.1 106,136.1 "/>
</svg>
